<svg id="Capa_2" data-name="Capa 2" xmlns="http://www.w3.org/2000/svg" viewBox="0 0 17.89 17.13"><defs><style>.cls-1,.cls-2{fill:none;stroke-linecap:round;stroke-linejoin:round;}.cls-1{stroke:#1a1a1a;}.cls-2{stroke:#000;}</style></defs><line class="cls-1" x1="4.32" y1="5.86" x2="16.32" y2="5.86"/><polyline class="cls-2" points="0.5 0.5 3.3 0.5 3.89 4.73 17.39 4.73 17.39 10.63 15.2 12.55 4.64 12.55 3.89 5.11"/><path class="cls-2" d="M6,4.14" transform="translate(0.5 0.11)"/><line class="cls-2" x1="7.32" y1="12.07" x2="7.32" y2="4.73"/><line class="cls-2" x1="10.54" y1="12.07" x2="10.54" y2="4.73"/><line class="cls-2" x1="14.07" y1="12.07" x2="14.07" y2="5.43"/><line class="cls-2" x1="16.96" y1="10.93" x2="16.96" y2="4.97"/><path class="cls-2" d="M16.18,14.59H4a1.15,1.15,0,0,1,0-1.95" transform="translate(0.5 0.11)"/><line class="cls-2" x1="4.4" y1="5.43" x2="16.68" y2="5.43"/><ellipse cx="7.01" cy="15.75" rx="1.51" ry="1.38"/><ellipse cx="13.44" cy="15.75" rx="1.51" ry="1.38"/><line class="cls-2" x1="3.25" y1="0.64" x2="4.54" y2="12.43"/><line class="cls-2" x1="3.2" y1="0.79" x2="4.59" y2="12.29"/></svg>