<?xml version="1.0" encoding="utf-8"?>
<!-- Generator: Adobe Illustrator 25.2.1, SVG Export Plug-In . SVG Version: 6.00 Build 0)  -->
<svg version="1.1" id="Capa_1" xmlns="http://www.w3.org/2000/svg" xmlns:xlink="http://www.w3.org/1999/xlink" x="0px" y="0px"
	 viewBox="0 0 73 44" style="enable-background:new 0 0 73 44;" xml:space="preserve">
<style type="text/css">
	.st0{fill:#FFFFFF;}
</style>
<g id="Page-1" transform="translate(-48.186108,-47.31959)">
	<g id="Artboard">
		<g id="vtex-logo" transform="translate(48,47)">
			<path id="Shape" class="st0" d="M52.5,18.9h-2.6v8.8c0,0.2-0.1,0.3-0.3,0.3h-2c-0.2,0-0.3-0.1-0.3-0.3v-8.8h-2.6
				c-0.1,0-0.2,0-0.2-0.1c-0.1-0.1-0.1-0.1-0.1-0.2v-1.5c0-0.1,0-0.2,0.1-0.2c0.1-0.1,0.1-0.1,0.2-0.1h7.7c0.2,0,0.3,0.1,0.3,0.3
				v1.5C52.8,18.8,52.6,18.9,52.5,18.9L52.5,18.9z"/>
			<path id="path9" class="st0" d="M60.7,27.9c-1,0.1-2,0.2-3,0.2c-1.9,0-3.7-0.5-3.7-3.2v-5c0-2.7,1.7-3.2,3.7-3.2c1,0,2,0.1,3,0.2
				c0.2,0,0.3,0.1,0.3,0.3v1.4c0,0.2-0.1,0.3-0.3,0.3h-3.2c-0.7,0-1,0.2-1,1v1.4h4c0.2,0,0.3,0.1,0.3,0.3V23c0,0.2-0.1,0.3-0.3,0.3
				h-4v1.6c0,0.8,0.3,1,1,1h3.2c0.2,0,0.3,0.1,0.3,0.3v1.4C61,27.8,60.9,27.9,60.7,27.9z"/>
			<path id="path11" class="st0" d="M72,28h-2.4c-0.2,0-0.3-0.1-0.4-0.2l-2.1-3.3l-1.9,3.2c-0.1,0.2-0.2,0.3-0.4,0.3h-2.2
				c-0.1,0-0.1,0-0.2,0c0,0-0.1-0.1-0.1-0.2c0,0,0-0.1,0-0.1l3.3-5.4l-3.3-5.2c0,0,0-0.1,0-0.1c0-0.1,0.1-0.2,0.2-0.2h2.4
				c0.2,0,0.3,0.1,0.4,0.3l1.9,3l1.9-3c0.1-0.2,0.2-0.3,0.4-0.3h2.2c0.1,0,0.2,0.1,0.2,0.2c0,0,0,0.1,0,0.1l-3.3,5.2l3.4,5.4
				c0,0,0,0.1,0,0.1C72.2,27.9,72.1,28,72,28z"/>
			<path id="path13" class="st0" d="M40.9,16.8c-0.1,0-0.2,0.1-0.2,0.2l-2.2,8.1c0,0.2-0.1,0.2-0.2,0.2c-0.1,0-0.2-0.1-0.2-0.2
				L35.9,17c0-0.1-0.1-0.2-0.2-0.2h-2.1c-0.1,0-0.1,0-0.2,0.1s-0.1,0.1,0,0.2c0,0,2.7,9.3,2.7,9.4c0.4,1.1,1.2,1.6,2.3,1.6
				c1.1,0,2-0.6,2.3-1.6c0-0.1,2.6-9.4,2.6-9.4c0-0.1,0-0.1,0-0.2c0-0.1-0.1-0.1-0.2-0.1L40.9,16.8z"/>
			<path id="path15" class="st0" d="M28.7,9.3H6.3c-0.8,0-1.6,0.4-2,1.1S3.9,12,4.3,12.7L6.5,17H2.4c-0.5,0-1,0.3-1.3,0.7
				s-0.3,1,0,1.5l7.2,13.6c0.3,0.5,0.8,0.8,1.3,0.8c0.6,0,1.1-0.3,1.3-0.8l2-3.7l2.5,4.6c0.4,0.8,1.2,1.2,2,1.2c0.9,0,1.6-0.5,2-1.2
				l11.2-21.1c0.4-0.7,0.3-1.5-0.1-2.2C30.2,9.7,29.5,9.3,28.7,9.3z M18.7,18.3l-4.9,9.2c-0.2,0.3-0.5,0.5-0.9,0.5
				c-0.4,0-0.7-0.2-0.9-0.5l-4.9-9.1c-0.1-0.3-0.1-0.6,0-0.9C7.4,17.2,7.7,17,8,17h9.9c0.3,0,0.6,0.1,0.7,0.4
				C18.8,17.7,18.8,18,18.7,18.3z"/>
		</g>
	</g>
</g>
</svg>
